PathFileType	4	(X/Y/Z)	/Users/niels/Desktop/University/Third Semester/Perception and Action/Exam/Gymnastics Motion Tracking/Code for Gym Tracking/Analyzed Data/Webcam_Backflip/id8_1_baseline_Sports2D/id8_1_baseline_Sports2D_px_person00.trc
DataRate	CameraRate	NumFrames	NumMarkers	Units	OrigDataRate	OrigDataStartFrame	OrigNumFrames
29.8	29.8	11	22	m	29.8	18	150
Frame#	Time	Hip			RHip			RKnee			RAnkle			RBigToe			RSmallToe			RHeel			LHip			LKnee			LAnkle			LBigToe			LSmallToe			LHeel			Neck			Head			Nose			RShoulder			RElbow			RWrist			LShoulder			LElbow			LWrist		
		X1	Y1	Z1	X2	Y2	Z2	X3	Y3	Z3	X4	Y4	Z4	X5	Y5	Z5	X6	Y6	Z6	X7	Y7	Z7	X8	Y8	Z8	X9	Y9	Z9	X10	Y10	Z10	X11	Y11	Z11	X12	Y12	Z12	X13	Y13	Z13	X14	Y14	Z14	X15	Y15	Z15	X16	Y16	Z16	X17	Y17	Z17	X18	Y18	Z18	X19	Y19	Z19	X20	Y20	Z20	X21	Y21	Z21	X22	Y22	Z22
18	0.6040268456375839	0.9490416751274545	-0.3254560712127367	0.0	0.9446778768108464	-0.3267485180899823	0.0	0.8830436264216625	-0.3994449571632591	0.0	0.8588957790706211	-0.3371162592869122	0.0	0.8351231268702426	-0.343990092752584	0.0	0.8386086655140611	-0.33901322897499414	0.0	0.8590968869236851	-0.32387139595831804	0.0	0.9547258638663914	-0.32935470503851494	0.0	0.8916932904930759	-0.39237030307476123	0.0	0.8724610207202771	-0.3360132241512496	0.0	0.8364878963367974	-0.34177467326497846	0.0	0.8385890323991158	-0.3333217048651682	0.0	0.8719999250725119	-0.3185663144980562	0.0	0.9741245503749297	-0.42960372209717923	0.0	0.995763518310542	-0.4757979440249068	0.0	0.9740611291975239	-0.46658664259666827	0.0	0.9674451710425467	-0.4150568459496182	0.0	0.9301299471084886	-0.3803850597460034	0.0	0.9166930253791399	-0.40355068567381236	0.0	0.9802439564612937	-0.4194900107551209	0.0	0.9494730524119916	-0.3941738498512254	0.0	0.9589362682252106	-0.4071581255567064	0.0
19	0.6375838926174496	0.935725261242241	-0.33445987300257257	0.0	0.9303801106288132	-0.3358956540954343	0.0	0.8823883404047941	-0.4307933516657663	0.0	0.832864082466637	-0.3836500223850857	0.0	0.8103071666186482	-0.4059055419861632	0.0	0.8107433046862326	-0.39907072837514823	0.0	0.8290290651656852	-0.37046614641271214	0.0	0.9418925873180405	-0.33777983719331134	0.0	0.8922671627108357	-0.42131972506074333	0.0	0.852152328354991	-0.3809150523440936	0.0	0.8143401675776423	-0.40143192635823555	0.0	0.815785740973742	-0.3910110968921368	0.0	0.8449127520399108	-0.36495192006023713	0.0	0.9930593314034789	-0.43352672055597674	0.0	1.0277630476272541	-0.47445194956483633	0.0	1.0022486495270884	-0.4727643883382661	0.0	0.9824958417481546	-0.4209066946401514	0.0	0.9311484094876704	-0.3978319048451304	0.0	0.9166476979986582	-0.43571691980006994	0.0	0.9960709323230094	-0.42234353098536837	0.0	0.9558426543205254	-0.41031905855246853	0.0	0.9652726342866221	-0.4351761582233523	0.0
20	0.6711409395973155	0.9227684073894107	-0.352951264261794	0.0	0.9169587576312889	-0.3539417369852331	0.0	0.8830076118569966	-0.46234827431385234	0.0	0.8172112638783308	-0.44193040990909044	0.0	0.8026819592898778	-0.4769002449608779	0.0	0.7996784333995461	-0.46959373962605966	0.0	0.8095358627317762	-0.43104358425831574	0.0	0.9287348549780653	-0.3558729090130478	0.0	0.8934451918557634	-0.45293851046295036	0.0	0.8393159087101273	-0.43757074883574765	0.0	0.8086723444190673	-0.47113263289582563	0.0	0.808941396766288	-0.45930317374578106	0.0	0.8264788378052763	-0.4254330744023258	0.0	1.0072255292028036	-0.4363088024112213	0.0	1.0523744223006335	-0.4685722926851294	0.0	1.0251059581695927	-0.4737339156684772	0.0	0.9936196187392794	-0.4260780234781272	0.0	0.9354438277830313	-0.4177081794269253	0.0	0.9203193012189196	-0.4672061152212352	0.0	1.006682076791856	-0.425268958653902	0.0	0.962363145580335	-0.42909721406737095	0.0	0.97049415461626	-0.46480593358332983	0.0
21	0.7046979865771812	0.9108996848268512	-0.38049727121487903	0.0	0.9053554229114179	-0.3807808750286919	0.0	0.8836481750246589	-0.49527993252220354	0.0	0.813264320950988	-0.5076742540115937	0.0	0.8111244312282954	-0.549631242786431	0.0	0.8051561191840048	-0.5433039687945768	0.0	0.8026152884134562	-0.5008927888658272	0.0	0.9160604743313845	-0.3831019182022124	0.0	0.8932296211467123	-0.48780192916572823	0.0	0.8334264886456608	-0.5020037451748747	0.0	0.8175270367131844	-0.5437039314297074	0.0	0.816104806636171	-0.531851071433904	0.0	0.8172334454134935	-0.4951128566194232	0.0	1.0154025933389141	-0.4396944076666156	0.0	1.068608249214337	-0.4612666324500978	0.0	1.0409396457906894	-0.4719960036840873	0.0	0.9997964308601468	-0.4320936794364643	0.0	0.9429423330145406	-0.4390508372985437	0.0	0.9288282542825606	-0.4959263046672891	0.0	1.011551323002543	-0.4299038801117608	0.0	0.9691469968599506	-0.4496966548674169	0.0	0.9748637165390494	-0.49409841524679576	0.0
22	0.738255033557047	0.9006148567680435	-0.4158935441478948	0.0	0.8959891167327013	-0.41562002995053476	0.0	0.8841927571466028	-0.5310789153668797	0.0	0.8198349515918483	-0.5756078589928937	0.0	0.8305589910409403	-0.6180699848549966	0.0	0.8227212320080266	-0.613744789835743	0.0	0.8075865487795143	-0.5738543848579347	0.0	0.9046597137959543	-0.41813876157961577	0.0	0.8914832825233902	-0.5259952363378687	0.0	0.8344452910076818	-0.5692891300844678	0.0	0.8363284475378813	-0.6126613239889603	0.0	0.8327555037339227	-0.6023079635544375	0.0	0.8173542356557333	-0.5679217144007729	0.0	1.017250847512948	-0.4455057871000206	0.0	1.076217829788501	-0.4554580249209743	0.0	1.0489729185227468	-0.47037959272291757	0.0	1.0006658310524572	-0.4406788744425354	0.0	0.9524911267597237	-0.4607965289105659	0.0	0.9427532227138152	-0.5197701735569632	0.0	1.0109857159368876	-0.43781790666190634	0.0	0.976597392375212	-0.47079635827580174	0.0	0.9810113368075418	-0.5198347108819414	0.0
23	0.7718120805369127	0.8923451986912047	-0.45747502794081163	0.0	0.8889012700997877	-0.45698256522539116	0.0	0.8855010041838842	-0.5704458284813032	0.0	0.8335153699168866	-0.6408922958750027	0.0	0.8541239212663332	-0.678904210753528	0.0	0.8456628971764827	-0.6770216533313785	0.0	0.8210689055102199	-0.6440311624666766	0.0	0.8953231008634365	-0.4592555699650081	0.0	0.8899467614906956	-0.567193979959681	0.0	0.8417820237832798	-0.6347517576645842	0.0	0.8593214131389773	-0.6741214413328325	0.0	0.8534596348084473	-0.6661855802829959	0.0	0.8257097207644233	-0.6381722962173101	0.0	1.0132046713975413	-0.45525778136592093	0.0	1.0755391529523086	-0.45315113454124456	0.0	1.0493225713427206	-0.4712363411584489	0.0	0.9964666915915471	-0.45331823159459644	0.0	0.9626061879112985	-0.48209134989554125	0.0	0.9615460772334887	-0.537227319687048	0.0	1.0057677413546002	-0.45020401773682966	0.0	0.9844372135405371	-0.49080979303463274	0.0	0.9907785253633142	-0.538827821406571	0.0
24	0.8053691275167785	0.8864229404093761	-0.502982881272038	0.0	0.8839475206820396	-0.5025343000197462	0.0	0.8886649374471438	-0.6125071646164364	0.0	0.8498293116100272	-0.6998605672401496	0.0	0.875639286888085	-0.7311040056841197	0.0	0.8675470024858034	-0.731555273752429	0.0	0.8381245570821431	-0.7068767263409221	0.0	0.8886598707626333	-0.5042161739305883	0.0	0.8906695413855545	-0.6102359068811714	0.0	0.8530284457105807	-0.6944486081495274	0.0	0.8809641534506272	-0.7268348436470043	0.0	0.8731244699793312	-0.7214081014984881	0.0	0.8390193357823367	-0.7013001322024794	0.0	1.0042534664548717	-0.4697433933521087	0.0	1.0674438387455232	-0.45542040083657853	0.0	1.042877150486883	-0.4761648853638571	0.0	0.9879219565357054	-0.4707399140381617	0.0	0.971844711818426	-0.5022437772705126	0.0	0.9829651495688901	-0.5476639156468367	0.0	0.9968642993819741	-0.467537399014693	0.0	0.991331935896864	-0.5083834558806979	0.0	1.0030292092700033	-0.5493343106946624	0.0
25	0.8389261744966443	0.8828364463850182	-0.5493281629355479	0.0	0.8808135421080947	-0.5490680685131725	0.0	0.8943021098495954	-0.6547086493113898	0.0	0.8647903805608717	-0.7498953411287604	0.0	0.8913531365403193	-0.7744838188495947	0.0	0.8841738433203574	-0.7767344889775911	0.0	0.8540740465769844	-0.7593194396900795	0.0	0.8847953507110765	-0.5500189409366343	0.0	0.8946495896171555	-0.6526651902937413	0.0	0.8648891031568271	-0.7452815912171096	0.0	0.8974846649155783	-0.7706333742762141	0.0	0.8881704765092789	-0.7672728200328304	0.0	0.8529835071378062	-0.7540688541701045	0.0	0.991833398175084	-0.4886339854662747	0.0	1.0534947992346166	-0.4626424001416545	0.0	1.0312678001001185	-0.4858447421222967	0.0	0.9762663005520942	-0.4924397573994344	0.0	0.9788897345456788	-0.5205151594108243	0.0	1.003263257133086	-0.5514089754650564	0.0	0.9853638451604921	-0.4891255441436428	0.0	0.995768191662453	-0.5228713223111184	0.0	1.0150502152406113	-0.5516500990049547	0.0
26	0.87248322147651	0.8810973879220607	-0.592716906958838	0.0	0.8789987244871277	-0.5927838582352918	0.0	0.9022873485631288	-0.6933043779723462	0.0	0.8761342657365954	-0.788957911210716	0.0	0.9005041853105185	-0.8084294860767745	0.0	0.8942982047833807	-0.8117156920369052	0.0	0.8660665996885484	-0.7993112432398042	0.0	0.8832290357272513	-0.5929643848919636	0.0	0.9016490506751291	-0.6910107929933829	0.0	0.8748832769879492	-0.7849275555649637	0.0	0.9076629794014737	-0.8049570183732001	0.0	0.8973099369457657	-0.8031168833334669	0.0	0.8642751208208115	-0.7944084332205089	0.0	0.977732798105099	-0.5102881741852088	0.0	1.0360635854786597	-0.4743311855791099	0.0	1.0167611220336001	-0.49965044606387266	0.0	0.963269371813885	-0.5164944858389039	0.0	0.9830748520829194	-0.5360828241234461	0.0	1.0189513567431456	-0.5498135188448617	0.0	0.9724988500802505	-0.5128623095492018	0.0	0.9970297713339332	-0.534264105159514	0.0	1.0243787754183473	-0.5478186975162767	0.0
27	0.9060402684563759	0.8804372025860984	-0.6292093126403453	0.0	0.8779205344976844	-0.6298058250083396	0.0	0.9119729207934109	-0.7241924879372877	0.0	0.8835080686435535	-0.8154785743559262	0.0	0.9046370368766481	-0.8317294168439294	0.0	0.8990370027481546	-0.8352676089367455	0.0	0.8734883838651313	-0.825601564525378	0.0	0.883083204222095	-0.6291773725460575	0.0	0.9107522394614063	-0.7214681151196429	0.0	0.8820891176883178	-0.8117780361482704	0.0	0.9124257400837145	-0.8286881724303418	0.0	0.9014076837196912	-0.8279539252007853	0.0	0.87162700210268	-0.8211665735071911	0.0	0.9638254049137981	-0.5318493234033179	0.0	1.0179842490197502	-0.4886495140907804	0.0	1.001837696805213	-0.5153523073818917	0.0	0.9508715429544391	-0.5397976895043266	0.0	0.984779816330966	-0.5481162026426403	0.0	1.0286112607599154	-0.5448784433910802	0.0	0.9596793440929319	-0.5355423542985228	0.0	0.9955457120715252	-0.5426015766793176	0.0	1.0297107442863112	-0.5406571267865513	0.0
28	0.9395973154362416	0.8801769432454348	-0.6555306950829936	0.0	0.8771040918042019	-0.6568662462557171	0.0	0.9225766463074692	-0.7439397201119528	0.0	0.8877176779816331	-0.828697655259072	0.0	0.9062022800065992	-0.843430818576972	0.0	0.9006187297831318	-0.8466346143160147	0.0	0.8771805847393308	-0.8379536286289981	0.0	0.8835790010948595	-0.6553792631616912	0.0	0.9210102643073693	-0.740762722754145	0.0	0.8867953061212488	-0.8251346377933888	0.0	0.9138397553818453	-0.8409692247010775	0.0	0.9025551480521342	-0.8410598712954837	0.0	0.875458085750468	-0.834134123734721	0.0	0.9516671313882541	-0.5497695598341823	0.0	1.0017949674100248	-0.5023375908124091	0.0	0.9886321078653437	-0.5294478976312629	0.0	0.9405208858246342	-0.5587503326645084	0.0	0.9849399950622925	-0.555755479359003	0.0	1.0328682978288917	-0.53835092835911	0.0	0.9483338215544536	-0.5536622958033861	0.0	0.9926427731035367	-0.5474539344518351	0.0	1.0314232688680833	-0.5324473891649575	0.0
